<svg width="149" height="216" viewBox="0 0 149 216" fill="none" xmlns="http://www.w3.org/2000/svg">
  <g opacity="0.5">
    <path d="M77.8671 215.172C77.8671 213.563 80.7929 212.887 81.6631 214.295C82.1897 215.147 81.5512 215.845 80.2439 215.845C78.9367 215.845 77.8671 215.542 77.8671 215.172H77.8671ZM61.0973 211.943C61.0973 210.636 61.7833 209.991 62.6218 210.509C63.4603 211.027 64.1463 212.097 64.1463 212.886C64.1463 213.675 63.4603 214.32 62.6218 214.32C61.7833 214.32 61.0973 213.25 61.0973 211.943ZM71.769 212.959C71.769 211.492 75.4766 209.716 78.3729 209.795C79.3525 209.822 78.8222 210.851 77.1946 212.082C73.8353 214.623 71.7691 214.957 71.7691 212.959H71.769ZM93.112 209.978C93.112 209.267 95.8358 207.457 99.1648 205.956C102.494 204.454 106.373 201.949 107.786 200.388C110.893 196.955 112.423 196.774 112.423 199.837C112.423 201.095 111.542 202.124 110.466 202.124C109.39 202.124 105.461 204.182 101.733 206.697C94.5876 211.52 93.112 212.082 93.112 209.978ZM100.735 209.746C100.735 208.908 101.804 208.222 103.111 208.222C104.419 208.222 105.064 208.908 104.546 209.746C104.028 210.585 102.958 211.271 102.169 211.271C101.38 211.271 100.735 210.585 100.735 209.746ZM112.267 209.905C111.803 209.155 112.449 208.147 113.702 207.667C115.086 207.136 115.98 207.667 115.98 209.031C115.98 211.497 113.598 212.058 112.267 209.905H112.267ZM63.5802 208.54C63.1703 207.876 65.1879 207.609 68.0637 207.944C70.9396 208.28 73.2926 208.823 73.2926 209.15C73.2926 210.298 64.3178 209.733 63.58 208.54H63.5802ZM86.1614 207.41C87.789 206.179 89.7512 205.172 90.5221 205.172C92.4531 205.172 106.832 195.753 106.832 194.488C106.832 193.926 108.547 192.684 110.644 191.729C112.74 190.774 114.455 190.315 114.455 190.71C114.455 192.013 107.832 199.074 106.61 199.074C105.952 199.074 102.202 201.111 98.2775 203.6C94.3526 206.089 90.603 207.793 89.945 207.386C89.2871 206.98 88.3179 207.344 87.7911 208.196C87.2645 209.048 86.0165 209.724 85.0178 209.697C84.0192 209.672 84.5338 208.641 86.1614 207.41H86.1614ZM57.6669 207.17C56.1995 206.787 54.999 205.901 54.999 205.203C54.999 204.504 56.371 204.292 58.048 204.73C59.725 205.169 61.0971 206.134 61.0971 206.874C61.0971 207.615 60.9256 208.142 60.716 208.044C60.5063 207.948 59.1343 207.554 57.6669 207.17ZM76.3418 206.697C76.3418 205.858 77.0279 205.172 77.8663 205.172C78.7048 205.172 79.3909 205.858 79.3909 206.697C79.3909 207.535 78.7048 208.221 77.8663 208.221C77.0279 208.221 76.3418 207.535 76.3418 206.697ZM119.028 206.738C119.028 204.672 121.737 203.389 122.725 204.987C123.197 205.752 122.559 206.77 121.306 207.251C120.053 207.732 119.028 207.501 119.028 206.738H119.028ZM80.4563 204.653C79.9548 203.346 77.8349 202.801 74.5762 203.14C70.7939 203.534 70.2454 203.341 72.4478 202.391C75.293 201.163 75.2773 201.075 72.0666 200.235C69.7999 199.642 68.7181 200.046 68.7181 201.486C68.7181 204.469 61.294 203.625 60.3118 200.531C59.4669 197.869 44.3258 189.39 44.3258 191.579C44.3258 192.313 47.0233 194.29 50.3204 195.972C56.3469 199.046 59.5386 202.123 56.7019 202.123C55.8634 202.123 54.7533 201.437 54.2352 200.598C53.717 199.76 52.0909 199.074 50.6215 199.074C49.1521 199.074 46.6194 197.873 44.9933 196.406C43.3671 194.939 39.4646 191.817 36.3209 189.468C33.1773 187.12 30.6052 184.476 30.6052 183.593C30.6052 182.71 33.0785 184.16 36.1011 186.814C39.1238 189.468 42.0385 191.198 42.5779 190.658C43.1174 190.119 42.1878 188.736 40.5121 187.585C36.2125 184.633 32.1084 180.471 30.418 177.349C27.9344 172.763 31.7619 174.306 35.5143 179.404C37.426 182.001 42.0772 185.893 45.8505 188.051C49.6237 190.21 53.6377 192.686 54.7703 193.553C55.903 194.419 57.7487 195.264 58.872 195.428C59.9952 195.593 63.6695 196.114 67.0372 196.585C73.0873 197.431 79.2358 200.1 81.1252 202.699C82.5058 204.599 85.7527 202.26 84.5153 200.258C83.904 199.269 84.2024 199.041 85.2568 199.693C86.5166 200.472 86.5687 201.628 85.4387 203.74C83.5958 207.183 81.5702 207.555 80.4567 204.653H80.4563ZM65.6248 199.014C62.0361 196.745 60.217 197.333 63.4695 199.711C65.0958 200.901 66.7507 201.549 67.147 201.153C67.5433 200.757 66.8583 199.794 65.6249 199.014H65.6248ZM49.5972 203.543C49.0436 202.648 47.5955 202.297 46.379 202.764C45.1626 203.23 44.5559 202.984 45.0308 202.215C45.5058 201.447 44.4447 200.358 42.6728 199.795C39.5867 198.816 33.654 193.82 33.654 192.2C33.654 191.252 39.67 194.599 42.3271 197.026C43.389 197.995 46.3311 199.706 48.8654 200.828C51.3994 201.949 53.4727 203.386 53.4727 204.019C53.4727 205.743 50.75 205.409 49.5971 203.543H49.5972ZM90.0315 201.396C91.6036 199.501 91.559 199.074 89.7898 199.074C88.5971 199.074 86.8147 198.267 85.8289 197.281C84.4555 195.908 85.1054 194.839 88.6099 192.708C93.8546 189.518 94.634 189.352 94.634 191.422C94.634 192.245 92.919 193.348 90.8227 193.874C88.7266 194.4 87.0114 195.442 87.0114 196.19C87.0114 198.792 90.6836 197.523 94.9317 193.453C97.2835 191.2 99.2076 190.113 99.2076 191.039C99.2076 191.964 97.321 194.129 95.0152 195.849C92.7094 197.57 91.5348 198.999 92.4048 199.025C93.2749 199.051 96.362 196.969 99.2652 194.396C102.168 191.823 103.733 190.119 102.743 190.609C100.486 191.727 98.594 188.961 100.718 187.649C103.219 186.103 106.745 178.368 107.707 172.317C108.375 168.112 108.129 167.018 106.712 167.894C105.284 168.777 105.067 167.621 105.813 163.104C106.354 159.829 106.804 155.606 106.813 153.719C106.822 151.833 107.562 150.289 108.457 150.289C109.391 150.289 109.672 151.589 109.117 153.338C108.514 155.238 108.843 156.387 109.99 156.387C112.258 156.387 110.914 140.042 108.442 137.57C107.556 136.683 106.83 134.498 106.83 132.714C106.83 129.386 101.502 115.212 95.6705 103.029C91.4078 94.122 82.2484 84.7749 76.8185 83.7897C65.9552 81.8198 54.6755 89.0147 49.5621 101.175C46.3381 108.843 46.638 127.155 50.0775 132.65C50.6391 133.547 51.2192 135.074 51.3667 136.044C51.5141 137.014 53.9345 140.913 56.7454 144.71C61.1415 150.648 62.4953 151.535 66.4295 151.054C68.945 150.746 71.7506 150.448 72.6641 150.391C74.3463 150.287 77.8635 143.872 77.8635 140.908C77.8635 140.021 75.8243 141.477 73.3321 144.145C68.8964 148.894 64.9563 149.341 66.6593 144.904C67.1383 143.656 66.6562 142.666 65.5693 142.666C64.4975 142.666 62.366 141.531 60.8327 140.143C59.1873 138.654 58.0448 138.336 58.0448 139.367C58.0448 140.329 59.4168 141.972 61.0938 143.02C62.7708 144.067 64.1429 145.484 64.1429 146.168C64.1429 146.852 62.7031 146.404 60.9433 145.171C57.1461 142.511 53.1297 135.305 54.3468 133.335C55.6893 131.163 58.0144 133.353 57.0462 135.872C56.4615 137.395 56.8983 137.851 58.3931 137.278C59.6098 136.811 61.4852 137.489 62.5607 138.785C65.3825 142.185 74.6453 141.945 74.5573 138.473C74.5201 137.006 75.1453 132.627 75.9465 128.742C78.0038 118.767 72.6286 104.689 66.7206 104.576C66.0423 104.563 65.9113 105.238 66.4295 106.077C66.9477 106.915 66.6533 107.601 65.7752 107.601C64.8971 107.601 63.7399 110.345 63.2035 113.699C62.6672 117.053 61.5896 119.797 60.8088 119.797C60.028 119.797 59.7838 119.159 60.2662 118.378C60.7487 117.598 60.4349 116.521 59.5691 115.986C58.7033 115.451 58.5013 114.203 59.1202 113.213C60.8301 110.478 60.991 107.601 59.4342 107.601C58.6699 107.601 58.0446 108.973 58.0446 110.65C58.0446 112.327 57.304 113.699 56.3989 113.699C54.45 113.699 56.1506 104.071 58.2396 103.279C58.9813 102.997 59.2817 102.271 58.9072 101.665C58.5326 101.059 59.7617 98.6376 61.6384 96.2838C65.611 91.3018 72.463 89.9651 77.4287 93.2031C82.7689 96.6856 84.8344 95.7682 80.9538 91.6376C78.0529 88.5497 76.4241 88.0217 71.9221 88.7096C64.8709 89.7872 59.9242 93.0049 56.7553 98.575C55.3682 101.013 53.6349 103.013 52.9033 103.018C52.1717 103.023 52.3373 102.107 53.2712 100.982C54.2051 99.8564 54.6139 98.5805 54.1798 98.1464C53.1228 97.0894 65.1618 86.2923 67.5774 86.1309C68.623 86.0611 71.1394 85.8239 73.1692 85.6041C76.6022 85.2324 79.1172 86.9557 89.0778 96.5041C91.5945 98.9168 96.9643 109.372 99.7822 117.345C100.646 119.79 100.448 119.936 98.4795 118.302C97.2026 117.242 96.1579 115.342 96.1579 114.079C96.1579 111.155 87.2003 95.4042 85.5375 95.4042C82.8507 95.4042 82.7607 99.7068 85.4327 100.405C88.2813 101.15 94.0669 112.254 96.927 122.464C97.4554 124.351 98.5061 125.895 99.2618 125.895C100.017 125.895 100.241 124.865 99.7582 123.608C99.2756 122.35 99.5658 121.321 100.403 121.321C101.793 121.321 103.715 126.259 104.557 131.992C104.742 133.25 105.429 136.268 106.084 138.699C106.937 141.867 106.781 142.814 105.531 142.042C104.573 141.45 103.354 138.245 102.822 134.92C102.29 131.596 101.301 128.533 100.623 128.115C98.4506 126.772 99.7239 134.113 102.56 139.28C105.904 145.372 106.083 151.252 103.018 154.316C101.76 155.574 100.731 157.862 100.731 159.4C100.731 161.447 99.9133 161.984 97.6824 161.4C95.4966 160.829 94.6333 161.353 94.6333 163.254C94.6333 165.549 94.9743 165.624 97.1681 163.813C99.342 162.019 99.5898 162.046 98.9097 164.008C98.4734 165.265 96.9207 166.187 95.4592 166.057C93.9855 165.926 91.71 167.722 90.3504 170.091C87.5035 175.052 80.5043 177.651 71.8599 176.956C58.8888 175.914 42.3244 158.734 40.2663 144.188C39.8038 140.919 39.9574 140.758 41.3454 143.057C42.2355 144.531 42.5431 146.417 42.029 147.249C41.5149 148.081 41.6493 148.762 42.3276 148.763C43.006 148.764 45.4605 152.147 47.7822 156.281C54.2978 167.881 62.0453 173.216 73.373 173.901C82.344 174.443 82.8942 174.262 87.9023 169.105C90.765 166.157 93.1073 162.379 93.1073 160.709C93.1073 158.397 91.9087 159.247 88.088 164.27C83.9169 169.752 82.0733 170.95 77.1805 171.355C73.9421 171.623 69.6961 171.442 67.745 170.951C63.2328 169.819 54.2017 161.926 48.6354 154.25C43.306 146.901 42.9411 143.339 48.1366 149.38C50.2318 151.816 51.9461 154.303 51.9461 154.905C51.9461 156.962 62.0867 167.079 63.1162 166.05C63.6806 165.485 64.1423 165.793 64.1423 166.733C64.1423 169.212 74.4099 170.814 76.9242 168.727C78.0665 167.779 80.2297 167.475 81.7312 168.051C83.6057 168.77 84.1159 168.54 83.359 167.315C82.054 165.204 76.8133 164.925 76.0844 166.929C75.3986 168.814 64.3175 164.867 61.2504 161.645C58.9727 159.252 59.0659 159.215 62.6179 161.099C68.6629 164.307 74.7913 164.5 78.0118 161.586C79.8612 159.912 80.912 159.631 80.912 160.812C80.912 161.829 81.5981 162.238 82.4366 161.72C83.2751 161.202 83.9611 160.092 83.9611 159.254C83.9611 158.415 83.2751 158.153 82.4366 158.671C80.7953 159.686 80.3094 157.495 81.8368 155.968C83.8449 153.96 86.7037 158.637 85.1998 161.469C82.623 166.323 85.0577 165.964 87.9526 161.063C89.4728 158.49 91.5977 156.384 92.6747 156.384C93.7516 156.384 94.6327 155.698 94.6327 154.86C94.6327 154.022 95.365 153.335 96.26 153.335C97.1935 153.335 97.4746 154.635 96.9195 156.384C96.3873 158.061 96.6295 159.434 97.4579 159.434C99.4565 159.434 101.454 150.859 101.009 144.188C100.538 137.12 99.559 134.643 97.6924 135.797C96.7789 136.361 96.1634 134.703 96.1725 131.701C96.1919 125.364 90.6102 109.247 86.7178 104.401L83.7774 100.74L86.2182 106.076C87.5606 109.01 89.2298 112.463 89.9274 113.748C91.3976 116.457 92.6154 122.231 93.8171 132.191C94.5404 138.186 94.2447 139.361 91.8557 139.986C88.9995 140.733 88.4458 142.561 88.3887 151.43C88.3711 154.155 87.6703 156.385 86.8312 156.385C85.992 156.385 85.795 155.593 86.3933 154.625C87.1002 153.481 86.8076 153.281 85.5576 154.053C84.0946 154.958 83.947 154.376 84.941 151.621C86.5749 147.093 86.0605 125.86 84.2736 124.073C83.5257 123.325 83.2338 124.68 83.6022 127.19C83.9607 129.633 83.6267 132.019 82.8601 132.493C82.0935 132.966 81.4583 131.504 81.4485 129.243C81.4394 126.982 80.9399 122.559 80.34 119.415C79.0975 112.903 80.2774 111.831 82.4363 117.509C83.2333 119.605 84.9315 121.321 86.2099 121.321C87.9792 121.321 88.5345 123.12 88.5345 128.853C88.5345 132.996 89.2459 136.826 90.1154 137.363C91.5753 138.265 91.1804 129.168 89.3807 120.438C88.5082 116.206 84.096 107.606 79.8745 101.908C77.0285 98.067 76.7951 97.1986 78.8171 97.9746C80.4225 98.5906 81.0389 98.3666 80.4335 97.387C79.0133 95.0891 67.4781 93.5649 64.4431 95.2742C62.4043 96.4224 62.9053 96.7031 66.8046 96.5978C72.5466 96.4425 78.8299 102.115 83.8792 112.013C87.31 118.738 87.579 119.796 85.8576 119.796C85.2238 119.796 83.7634 117.668 82.6125 115.068C81.0533 111.545 80.1871 110.865 79.2147 112.4C78.1509 114.079 77.8718 114.037 77.7056 112.173C77.5935 110.915 77.5978 109.327 77.7147 108.643C77.8323 107.96 76.4822 105.37 74.7148 102.887C72.119 99.2421 70.5194 98.4404 66.3953 98.7181C63.5871 98.9072 61.6473 99.6408 62.0845 100.348C62.5217 101.056 62.0503 102.634 61.037 103.855C58.7121 106.656 59.6289 106.653 65.0476 103.842C68.9205 101.833 69.5876 101.871 71.712 104.223C75.9089 108.87 78.2205 115.773 78.8418 125.513C79.2765 132.329 78.9197 135.041 77.5887 135.041C76.1793 135.041 76.156 135.469 77.4928 136.806C78.8295 138.143 79.7832 138.135 81.4248 136.773C83.179 135.317 83.722 135.655 84.2743 138.543C84.6495 140.506 84.4376 143.437 83.8034 145.056C82.7904 147.643 82.63 147.537 82.4834 144.189C82.3194 140.442 82.2807 140.455 80.1902 144.952C79.0207 147.467 77.4498 150.405 76.6992 151.48C75.1429 153.71 61.1055 155.862 61.0682 153.877C61.0231 151.467 52.3878 142.732 51.1535 143.848C50.4817 144.455 50.35 144.216 50.8607 143.318C51.3715 142.419 50.7339 139.675 49.4438 137.22C46.3801 131.389 45.7428 128.498 45.1107 117.562C44.1256 100.521 53.6458 85.4683 67.6572 81.9127C72.938 80.5723 75.0536 80.7975 80.7193 83.3037C84.4377 84.9485 87.8313 85.943 88.2607 85.5135C88.6901 85.0841 88.7556 84.5612 88.4062 84.3516C81.1107 79.9743 76.9381 78.6346 70.5995 78.6346C63.9314 78.6346 62.2161 79.3649 55.9706 84.8622C51.1525 89.1032 48.8956 90.3241 48.8956 88.6891C48.8956 87.3687 52.6664 83.7846 57.275 80.7248C65.1723 75.4813 66.1813 75.2089 74.8119 75.9916C82.1913 76.6607 84.2328 76.3512 85.3261 74.3973C86.5547 72.202 87.0715 72.2272 90.7893 74.6633C93.0478 76.1431 95.2661 76.9832 95.7188 76.5305C96.8832 75.3662 105.303 79.9277 105.303 81.7228C105.303 83.8692 102.622 83.5509 101.877 81.3162C101.412 79.92 100.613 80.0572 98.8307 81.8399C96.6261 84.0445 96.9906 84.8738 103.002 91.3288C108.137 96.8425 110.461 101.2 113.544 111.09C115.719 118.069 117.499 124.598 117.499 125.599C117.499 126.6 118.071 127.418 118.769 127.418C120.541 127.418 120.445 122.479 118.629 120.177C117.802 119.129 117.528 118.271 118.02 118.271C118.512 118.271 117.592 115.184 115.974 111.411C113.209 104.959 113.301 103.839 116.55 104.435C117.838 104.671 117.529 102.694 115.261 96.1656C114.216 93.1597 114.235 93.1584 116.612 96.0758C119.34 99.4232 119.773 103.907 117.504 105.309C116.539 105.906 116.758 107.743 118.107 110.354C120.995 115.944 123.643 126.179 123.888 132.701C124 135.665 124.712 138.09 125.471 138.09C127.082 138.09 125.567 124.182 123.326 118.396C122.488 116.232 121.579 113.431 121.306 112.174C121.033 110.916 120.335 108.686 119.754 107.219C119.143 105.677 119.389 104.551 120.337 104.551C121.239 104.551 121.599 103.35 121.138 101.883C119.312 96.0744 125.54 105.435 130.506 115.962C137.464 130.712 135.377 131.797 128.158 117.183C121.659 104.025 120.082 103.013 125.631 115.56C127.589 119.986 129.259 123.95 129.344 124.37C129.429 124.789 129.856 126.161 130.293 127.419C130.731 128.676 131.798 132.107 132.666 135.041C133.857 139.072 134.109 139.343 133.698 136.148C133.398 133.823 133.696 131.584 134.361 131.173C136.185 130.046 139.311 146.646 139.467 158.287C139.542 163.945 140.119 168.576 140.748 168.578C141.377 168.579 141.891 169.28 141.891 170.135C141.891 170.99 140.176 171.379 138.08 170.998C135.01 170.442 134.269 170.927 134.269 173.493C134.269 175.245 132.519 178.972 130.38 181.776C128.241 184.581 127.04 186.865 127.712 186.852C129.836 186.81 132.169 184.684 133.226 181.824C133.808 180.247 134.998 179.523 135.994 180.139C137.605 181.135 125.002 194.519 116.736 200.591C113.774 202.766 113.763 202.741 116.355 199.687C119.707 195.739 119.752 194.314 116.486 195.567C113.701 196.636 114.518 194.446 118.737 189.534C120.002 188.061 120.577 186.396 120.014 185.834C119.452 185.271 117.927 186.133 116.625 187.749C113.987 191.023 114.16 190.306 118.105 181.623C121.482 174.189 122.392 170.731 122.64 164.389C122.747 161.663 123.444 159.434 124.19 159.434C126.153 159.434 124.162 173.737 121.477 178.929C119.412 182.921 119.441 183.594 121.777 185.964C124.204 188.428 124.198 188.704 121.691 190.566C118.419 192.995 118.273 194.497 121.31 194.497C122.568 194.497 123.597 193.525 123.597 192.337C123.597 191.149 124.454 189.777 125.502 189.288C127.014 188.583 127.017 188.216 125.518 187.515C124.167 186.883 124.72 185.198 127.452 181.616C129.877 178.437 130.934 175.552 130.342 173.734C129.571 171.37 129.695 171.268 131.052 173.154C132.474 175.13 132.7 175.079 132.72 172.772C132.733 171.305 132.058 170.105 131.219 170.105C130.381 170.105 129.695 169.483 129.695 168.723C129.695 167.963 130.895 167.521 132.363 167.742C133.83 167.962 134.147 167.842 133.068 167.476C130.295 166.535 131.007 145.711 133.811 145.711C134.901 145.711 135.793 144.625 135.793 143.297C135.793 141.97 134.935 141.18 133.887 141.542C132.832 141.907 131.137 140.092 130.09 137.477C128.244 132.865 128.218 132.915 129.002 139.613C129.781 146.267 129.736 146.359 127.507 142.662C125.285 138.979 125.227 139.106 125.776 146.474C126.575 157.202 126.882 157.855 128.287 151.809C129.054 148.51 129.243 152.584 128.781 162.481C128.156 175.871 127.533 178.987 124.969 181.538L121.905 184.587L123.661 180.013C126.605 172.343 127.956 159.255 125.886 158.46C124.89 158.078 123.947 154.539 123.789 150.595C123.632 146.652 123.269 142.396 122.982 141.138C122.695 139.88 121.944 136.622 121.314 133.897C120.683 131.172 119.602 128.942 118.912 128.942C118.222 128.942 118.358 130.952 119.214 133.408C120.07 135.864 120.538 139.809 120.254 142.174C119.874 145.34 119.042 143.518 117.1 135.265C115.65 129.1 114.843 123.44 115.308 122.687C115.773 121.935 115.427 121.32 114.539 121.32C113.651 121.32 112.925 118.959 112.925 116.073C112.925 113.188 112.315 110.451 111.569 109.99C110.824 109.529 109.748 107.298 109.18 105.032C107.838 99.6877 94.5054 82.9457 89.4254 80.2264C83.7997 77.2157 82.8314 79.3181 88.344 82.5744C90.8718 84.0677 92.5939 85.8495 92.1708 86.5342C91.7477 87.2188 92.471 87.779 93.7782 87.779C95.0854 87.779 96.1609 88.2935 96.1682 88.9224C96.1759 89.5512 98.4051 92.4808 101.123 95.4323C103.841 98.3838 106.332 101.814 106.659 103.055C106.986 104.296 108.405 109.459 109.811 114.529C111.218 119.599 112.115 124.51 111.804 125.442C111.494 126.374 111.961 127.584 112.844 128.129C113.727 128.675 114.449 129.851 114.449 130.742C114.449 131.765 113.604 131.663 112.162 130.466C110.905 129.422 109.876 127.496 109.876 126.187C109.876 124.877 108.397 120.673 106.589 116.845C104.782 113.017 102.71 108.513 101.985 106.836C100.752 103.985 100.792 103.968 102.603 106.587C108.051 114.462 108.272 114.66 107.14 110.647C106.548 108.551 105.219 105.464 104.187 103.787C102.642 101.278 102.058 101.119 100.897 102.886C99.1956 105.477 100.565 109.999 107.051 123.203C107.766 124.659 108.351 127.034 108.351 128.481C108.351 129.929 110.069 132.51 112.17 134.219C114.881 136.424 116.267 139.426 116.95 144.567C117.545 149.043 117.327 151.808 116.379 151.808C115.536 151.808 114.851 150.608 114.857 149.14C114.888 141.202 114.209 138.066 111.981 135.837C110.623 134.48 109.099 133.782 108.595 134.287C108.09 134.792 108.629 135.793 109.791 136.511C112.639 138.271 113.078 158.851 110.257 158.287C109.208 158.077 108.351 158.592 108.351 159.43C108.351 160.269 109.037 160.955 109.875 160.955C110.714 160.955 111.4 162.393 111.4 164.151C111.4 168.479 106.843 184.106 104.86 186.576C103.98 187.672 103.892 188.358 104.663 188.101C106.051 187.638 106.826 188.744 106.826 191.187C106.826 192.682 95.1378 201.148 90.9844 202.661C88.5376 203.552 88.3926 203.359 90.0277 201.39L90.0315 201.396ZM137.073 162.866C136.832 161.399 137.137 159.398 137.75 158.42C138.364 157.443 138.22 154.94 137.429 152.86C136.638 150.78 136.404 148.664 136.91 148.159C137.415 147.653 137.028 147.239 136.05 147.239C133.865 147.239 133.68 152.793 135.821 154.115C136.673 154.642 136.969 155.723 136.478 156.517C135.987 157.311 134.858 157.511 133.968 156.962C132.996 156.361 132.734 156.806 133.31 158.08C133.838 159.245 134.693 161.399 135.21 162.866C135.728 164.333 136.458 165.534 136.832 165.534C137.206 165.534 137.315 164.333 137.073 162.866H137.073ZM101.513 99.1856C102.438 98.335 101.923 98.1944 100.182 98.8218C98.0752 99.5809 97.5672 99.2638 98.2094 97.5903C98.7155 96.2716 97.1276 93.3897 94.3822 90.6444C88.4647 84.7269 87.0388 85.8044 91.9689 92.468C94.0257 95.2483 96.19 98.8757 96.7784 100.529C97.3777 102.213 98.3227 102.884 98.9273 102.054C99.5208 101.239 100.684 99.9481 101.513 99.1856H101.513ZM98.6608 79.9902C99.061 79.9902 99.0042 79.3686 98.5346 78.6089C98.065 77.8491 96.3869 77.5659 94.8054 77.9794C93.2239 78.393 91.4691 77.9849 90.9057 77.074C90.3423 76.1625 89.0643 75.4319 88.0658 75.4505C87.0671 75.4692 87.9651 76.8292 90.0614 78.4727C92.1576 80.1161 94.7864 81.1298 95.9032 80.7254C97.0198 80.3211 98.2608 79.9902 98.6611 79.9902H98.6608ZM77.1041 197.38C76.5859 196.541 77.5744 195.855 79.3008 195.855C81.0273 195.855 82.4399 196.541 82.4399 197.38C82.4399 198.218 81.4514 198.904 80.2432 198.904C79.0349 198.904 77.6224 198.218 77.1041 197.38ZM125.097 196.653C126.157 195.375 127.969 194.331 129.124 194.331C130.279 194.331 131.053 193.719 130.843 192.972C130.446 191.558 136.996 185.184 138.846 185.184C140.729 185.184 129.03 196.831 126.054 197.919C123.607 198.814 123.462 198.623 125.097 196.653H125.097ZM69.4212 194.235C68.0116 191.954 68.4722 191.766 77.4841 190.939C86.1327 190.146 87.456 190.632 82.0577 192.621C74.9112 195.253 70.4062 195.829 69.4212 194.235ZM59.9522 192.759C58.0656 192 56.522 191.015 56.522 190.568C56.522 188.894 62.1488 189.841 64.9966 191.995C68.4504 194.608 65.6184 195.036 59.9522 192.759ZM50.41 187.454C48.3528 184.975 49.9662 184.457 53.2546 186.541C54.511 187.337 54.7284 188.219 53.8084 188.787C52.9754 189.302 51.446 188.702 50.41 187.454H50.41ZM60.3182 187.563C57.811 186.506 53.4755 183.717 50.6836 181.364C47.6331 178.793 45.728 177.941 45.9095 179.229C46.0756 180.408 46.1303 182.657 46.0309 184.227C45.879 186.626 45.4741 186.769 43.4913 185.124C41.7316 183.663 41.5979 182.878 42.9646 182.033C44.2479 181.24 43.5176 179.715 40.5274 176.944C38.1792 174.768 36.7509 172.987 37.3534 172.987C37.9559 172.987 36.9647 171.101 35.1508 168.795C32.378 165.27 27.5561 155.715 27.5561 153.745C27.5561 153.428 28.229 153.169 29.0516 153.169C29.8741 153.169 30.9897 154.933 31.531 157.089C32.0722 159.245 34.9282 164.562 37.8775 168.904C44.5158 178.677 44.1389 178.256 45.2549 177.14C45.7659 176.629 43.982 172.948 41.2905 168.96C35.0711 159.745 30.4669 148.594 32.8808 148.594C33.5602 148.594 37.2387 156.564 38.158 160.028C38.3805 160.867 39.8593 163.374 41.4441 165.599C43.0289 167.825 44.3255 170.103 44.3255 170.663C44.3255 172.586 48.877 176.229 50.2328 175.391C50.9791 174.93 53.3222 175.915 55.4397 177.581C59.615 180.865 62.6199 181.498 62.6199 179.094C62.6199 177.392 67.9994 177.846 69.8221 179.702C70.4726 180.365 69.6327 180.68 67.9557 180.402C66.2787 180.124 64.9066 180.572 64.9066 181.397C64.9066 182.998 65.4378 183.151 72.5293 183.589C76.5134 183.836 76.7099 184.041 74.0538 185.183C71.4988 186.281 71.8074 186.51 75.9595 186.6C78.6846 186.66 80.9142 187.448 80.9142 188.353C80.9142 190.296 71.2869 188.604 70.4967 186.522C70.2172 185.785 68.5021 185.193 66.6854 185.206C64.2512 185.224 63.9263 185.574 65.4507 186.54C69.0138 188.798 65.0991 189.577 60.3181 187.562L60.3182 187.563ZM63.3539 185.23C64.1255 183.981 61.3197 182.271 51.1862 177.813C50.3477 177.444 51.3049 178.931 53.3134 181.116C55.3218 183.302 57.504 184.756 58.1627 184.349C58.8214 183.942 59.7912 184.307 60.3178 185.159C61.5136 187.093 62.1921 187.109 63.3537 185.23H63.3539ZM91.2604 185.748C93.9554 183.639 96.1603 180.888 96.1603 179.635C96.1603 178.111 97.0951 177.652 98.9802 178.251C101.166 178.944 102.16 178.024 103.398 174.161C104.706 170.082 105.025 169.813 105.152 172.682C105.238 174.61 104.349 178.042 103.177 180.308C100.553 185.383 94.6359 190.974 94.6359 188.379C94.6359 187.28 93.862 187.012 92.7302 187.719C87.9795 190.686 86.8631 189.19 91.2604 185.749L91.2604 185.748ZM99.2596 182.897C101.328 180.076 101.296 180.005 98.8282 181.94C97.3609 183.091 96.1603 184.749 96.1603 185.624C96.1603 186.5 96.3544 186.93 96.5917 186.581C96.8289 186.232 98.0295 184.574 99.2596 182.897ZM109.228 185.837C108.642 183.504 108.891 180.99 109.797 180.085C110.682 179.2 111.416 176.726 111.429 174.588C111.441 172.45 112.117 169.672 112.93 168.414C115.47 164.484 114.731 174.708 112.113 179.729C110.263 183.276 110.185 184.429 111.728 185.383C113.154 186.264 113.217 187.031 111.967 188.281C110.717 189.531 109.992 188.884 109.228 185.837H109.228ZM82.4388 186.708C82.4388 185.87 81.5568 185.184 80.4788 185.184C78.1587 185.184 77.7979 179.191 80.0976 178.853C80.966 178.725 82.3627 178.522 83.2011 178.401C86.6476 177.902 91.586 173.6 91.586 171.096C91.586 168.009 93.5119 167.705 97.9683 170.09C100.253 171.313 100.819 171.311 100.059 170.072C98.9423 168.265 101.94 157.967 104.318 155.446C105.24 154.468 105.44 154.823 104.876 156.435C104.392 157.817 103.163 163.185 102.144 168.364C101.116 173.591 99.7964 176.978 99.1784 175.978C98.3269 174.6 97.805 174.598 96.9581 175.96C96.3492 176.945 94.9666 177.412 93.8857 176.997C92.8047 176.582 90.4003 177.659 88.5425 179.39C86.0106 181.748 84.8711 182.061 83.9923 180.639C83.1594 179.292 82.5178 179.231 81.7771 180.43C81.2035 181.359 81.3148 182.118 82.0243 182.118C82.7339 182.118 83.4178 183.49 83.5441 185.167C83.6705 186.844 83.4733 188.216 83.1063 188.216C82.7391 188.216 82.4387 187.53 82.4387 186.691L82.4388 186.708ZM96.7144 171.127C96.1458 170.207 95.2639 170.425 94.4678 171.681C92.3841 174.97 92.9018 176.583 95.3805 174.526C96.629 173.49 97.2292 171.96 96.7145 171.127H96.7144ZM85.4879 185.776C85.4879 184.651 92.0166 179.202 93.4438 179.136C94.0464 179.109 94.1802 180.021 93.7411 181.166C92.9425 183.247 85.4879 187.411 85.4879 185.776H85.4879ZM72.5294 180.61C72.0112 179.771 72.2732 179.085 73.1117 179.085C73.9502 179.085 75.0603 179.771 75.5784 180.61C76.0966 181.448 75.8346 182.135 74.9961 182.135C74.1576 182.135 73.0475 181.448 72.5294 180.61ZM114.454 180.791C114.454 179.952 115.14 178.842 115.978 178.324C116.817 177.806 117.503 178.068 117.503 178.907C117.503 179.745 116.817 180.855 115.978 181.373C115.14 181.891 114.454 181.629 114.454 180.791ZM26.032 178.234C26.032 176.927 26.718 176.281 27.5565 176.8C28.395 177.318 29.0811 178.387 29.0811 179.176C29.0811 179.965 28.395 180.611 27.5565 180.611C26.718 180.611 26.032 179.541 26.032 178.234ZM35.734 176.936C23.0858 159.863 20.1171 154.694 22.9592 154.694C23.732 154.694 25.5614 157.267 27.0244 160.411C28.4874 163.556 30.067 166.471 30.5347 166.89C33.1521 169.237 39.9467 179.4 39.3181 180.029C38.9098 180.438 37.2969 179.046 35.734 176.936V176.936ZM140.491 178.451C140.425 176.844 140.786 175.943 141.292 176.45C141.799 176.957 141.853 178.272 141.413 179.372C140.926 180.588 140.565 180.227 140.491 178.451H140.491ZM56.5365 175.292C55.5003 174.043 54.0442 173.398 53.3008 173.857C52.5573 174.317 51.949 173.623 51.949 172.316C51.949 169.2 52.222 169.271 57.4288 173.749C59.8649 175.844 61.0848 177.559 60.1394 177.56C59.194 177.561 57.5727 176.54 56.5365 175.292ZM135.798 176.986C135.798 176.67 136.843 175.544 138.12 174.484C140.061 172.873 140.284 172.967 139.481 175.06C138.661 177.196 135.798 178.694 135.798 176.986H135.798ZM116.528 173.369C118.541 166.254 119.297 154.348 117.673 155.351C116.741 155.927 115.979 158.456 115.979 160.972C115.979 163.487 115.425 165.204 114.749 164.786C112.665 163.498 114.584 153.17 116.908 153.17C118.074 153.17 119.028 151.797 119.028 150.121C119.028 148.444 119.592 147.072 120.283 147.072C121.506 147.072 121.265 160.027 119.929 166.128C119.561 167.805 119.208 170.721 119.144 172.607C119.08 174.494 118.295 176.038 117.4 176.038C116.505 176.038 116.113 174.837 116.528 173.37L116.528 173.369ZM21.9844 172.16C21.4879 170.866 21.4222 169.467 21.8386 169.051C22.2549 168.634 22.9615 169.693 23.4088 171.403C24.3588 175.036 23.3032 175.597 21.9844 172.16H21.9844ZM27.0481 171.972C26.4891 171.413 26.0318 170.247 26.0318 169.38C26.0318 168.425 26.7418 168.515 27.8358 169.609C28.828 170.601 29.2854 171.767 28.8521 172.201C28.4189 172.634 27.6071 172.531 27.0481 171.972ZM42.38 162.011C40.0965 158.49 38.2281 154.488 38.2281 153.119C38.2281 151.749 37.7508 150.151 37.1676 149.568C36.5843 148.985 35.9458 147.409 35.7487 146.066C35.1872 142.24 37.2979 145.553 41.2466 154.694C43.2386 159.306 46.1945 164.279 47.8151 165.747C49.8866 167.622 50.1337 168.415 48.6469 168.415C47.4836 168.415 44.6635 165.533 42.3799 162.011H42.38ZM22.2203 163.841C21.7021 163.003 22.0046 162.317 22.8926 162.317C23.7806 162.317 24.5071 163.003 24.5071 163.841C24.5071 164.68 24.2046 165.366 23.8348 165.366C23.4651 165.366 22.7385 164.68 22.2203 163.841H22.2203ZM141.894 163.169C141.894 160.491 142.809 160.097 144.116 162.211C144.598 162.992 144.296 164.062 143.444 164.588C142.592 165.115 141.894 164.477 141.894 163.169H141.894ZM17.7114 160.897C17.229 160.117 17.5315 159.047 18.3837 158.521C19.2359 157.994 19.9331 158.632 19.9331 159.94C19.9331 162.618 19.0183 163.012 17.7115 160.897H17.7114ZM64.1777 158.952C55.5087 155.624 51.9435 152.265 46.3752 142.177C44.5583 138.885 42.6439 136.945 42.0927 137.837C40.4076 140.563 38.6181 139.635 37.854 135.638C37.4533 133.541 37.7164 131.826 38.4386 131.826C39.1608 131.826 39.7517 132.855 39.7517 134.113C39.7517 135.371 40.4377 136.4 41.2762 136.4C43.2082 136.4 43.2232 133.136 41.3139 128.114C40.4961 125.963 38.768 124.204 37.4735 124.204C35.6734 124.204 35.3615 123.218 36.1471 120.011C36.7121 117.705 37.7542 115.59 38.463 115.311C40.5516 114.487 39.9358 112.007 37.6426 112.007C35.4335 112.007 33.7097 116.478 33.6744 122.298C33.6622 124.185 32.9719 125.728 32.1387 125.728C31.3055 125.728 30.8528 124.528 31.1328 123.06C33.5684 110.295 33.9725 109.327 36.5847 110.01C38.1187 110.412 39.2527 109.852 39.2653 108.689C39.3005 105.436 46.1001 90.6642 47.562 90.6642C49.5962 90.6642 49.1583 93.1245 46.7715 95.1054C44.8254 96.7205 41.822 107.612 43.0412 108.633C43.3282 108.873 42.5339 109.72 41.2761 110.515C39.9692 111.341 39.7535 111.971 40.7727 111.984C41.7995 111.999 42.4831 114.11 42.3841 116.962C41.7063 136.483 53.6696 154.991 68.7455 157.749C72.0842 158.36 74.8404 158.437 74.8705 157.921C75.0004 155.697 82.135 148.398 82.9269 149.679C83.4069 150.456 82.0935 152.931 80.0082 155.18C77.9229 157.429 76.759 159.279 77.4219 159.292C78.0847 159.31 77.5979 159.981 76.3402 160.793C73.4588 162.655 74.0584 162.746 64.1776 158.953L64.1777 158.952ZM39.2352 117.825C38.8123 116.777 38.4663 117.635 38.4663 119.731C38.4663 121.827 38.8123 122.685 39.2352 121.637C39.6581 120.589 39.6581 118.874 39.2352 117.825ZM15.4012 152.621C13.4855 147.582 13.3871 144.123 15.1591 144.123C16.555 144.123 18.7967 154.914 17.6409 156.07C17.271 156.44 16.2631 154.888 15.4011 152.621H15.4012ZM91.1401 153.677C89.745 151.189 91.9855 141.074 93.9316 141.074C95.3988 141.074 95.624 142.212 94.7617 145.267C94.1108 147.573 93.8519 150.254 94.1864 151.225C94.8813 153.243 92.1359 155.452 91.1401 153.677H91.1401ZM142.727 152.889C141.828 150.012 139.72 139.097 139.561 136.501C139.33 132.702 134.081 117.906 130.249 110.254C128.269 106.3 123.562 99.588 119.789 95.3394C116.015 91.0909 112.954 86.7802 112.987 85.76C113.019 84.7399 116.092 87.3354 119.816 91.5279C123.539 95.7205 126.6 98.3336 126.617 97.335C126.635 96.3364 125.963 95.0953 125.124 94.577C124.286 94.0588 123.6 92.9052 123.6 92.0135C123.6 90.9912 124.445 91.0933 125.887 92.2901C127.144 93.334 128.173 95.1736 128.173 96.3782C128.173 97.5827 128.749 98.2127 129.452 97.7781C130.155 97.3434 132.257 99.704 134.123 103.024C135.989 106.344 138.042 109.06 138.685 109.06C139.328 109.06 140.76 110.752 141.866 112.819C142.973 114.887 144.567 116.153 145.408 115.633C146.25 115.112 146.525 115.356 146.019 116.175C145.513 116.994 146.052 119.501 147.218 121.747C148.383 123.992 148.669 125.83 147.854 125.83C147.039 125.83 145.945 124.629 145.423 123.162C144.134 119.535 127.881 98.1717 127.048 99.0063C126.681 99.3729 127.715 101.613 129.346 103.985C130.977 106.357 133.468 110.206 134.883 112.538C136.298 114.871 138.009 116.437 138.686 116.018C139.364 115.6 140.781 118.151 141.837 121.687C142.893 125.223 144.538 128.62 145.494 129.236C146.736 130.037 146.679 130.363 145.292 130.379C143.49 130.401 141.962 127.746 139.696 120.656C139.189 119.069 138.446 118.098 138.046 118.499C137.645 118.899 138.715 124.657 140.424 131.294C142.133 137.931 143.758 145.934 144.035 149.078C144.533 154.719 143.888 156.6 142.728 152.89L142.727 152.889ZM20.9073 152.213C20.3711 151.676 19.9429 149.809 19.9557 148.062C19.9749 145.443 20.2425 145.287 21.4803 147.173C22.724 149.067 23.1512 148.839 23.9707 145.841L24.9599 142.223L26.9656 145.841C29.408 150.246 29.5576 151.746 27.555 151.746C26.7165 151.746 26.0304 150.676 26.0304 149.369C26.0304 148.062 25.3332 147.423 24.4811 147.95C23.6289 148.477 23.2971 149.499 23.7437 150.222C24.7386 151.831 22.2635 153.569 20.9072 152.213H20.9073ZM96.8379 147.04C96.2745 146.128 96.5421 144.654 97.4325 143.763C98.5748 142.621 98.9788 143.109 98.8047 145.421C98.5237 149.15 98.271 149.359 96.8379 147.04ZM30.4858 146.791C29.8464 144.702 28.9063 139.648 28.6426 136.883C28.4628 134.997 27.9726 133.453 27.5534 133.452C27.1341 133.451 26.5815 127.962 26.3253 121.255C26.0691 114.547 26.4122 109.062 27.0876 109.065C27.763 109.069 28.4453 113.813 28.6037 119.609C28.8577 128.904 30.5046 138.122 33.1367 144.981C33.5993 146.186 33.2183 147.173 32.29 147.173C31.3619 147.173 30.5499 147.001 30.4858 146.792L30.4858 146.791ZM22.7211 138.406C22.3831 136.939 22.5559 133.337 23.1048 130.403C23.6591 127.439 24.1922 126.507 24.3037 128.306C24.4141 130.088 24.9332 133.69 25.4572 136.31C26.4498 141.273 23.8414 143.271 22.721 138.406H22.7211ZM33.9319 137.27C32.9751 135.17 32.7837 133.452 33.5064 133.452C34.7723 133.452 37.0531 139.705 36.1256 140.633C35.8758 140.883 34.8887 139.369 33.9319 137.27H33.9319ZM13.407 137.519C11.7082 133.2 11.9852 130.994 13.9761 132.985C14.8932 133.902 15.3875 135.926 15.0745 137.482C14.5255 140.212 14.4664 140.213 13.407 137.519L13.407 137.519ZM18.5931 139.55C18.4272 139.131 17.9104 136.044 17.4447 132.689C16.8029 128.068 17.0282 127.006 18.3756 128.303C19.3533 129.245 19.8701 132.332 19.524 135.163C19.1779 137.995 18.7589 139.969 18.5931 139.55ZM7.85545 135.866C7.78929 134.258 8.14958 133.358 8.65616 133.865C9.16273 134.371 9.2169 135.686 8.7766 136.787C8.28993 138.003 7.92869 137.642 7.85553 135.866H7.85545ZM61.9664 134.671C60.4943 132.569 60.1886 130.962 61.148 130.369C61.9902 129.849 62.4941 127.757 62.2679 125.72C61.9636 122.983 62.5217 122.128 64.4095 122.439C65.8136 122.671 67.4631 122.051 68.0752 121.06C68.776 119.927 68.5324 119.665 67.4172 120.354C64.6561 122.061 63.5058 116.911 65.7229 112.768C68.3136 107.927 69.3909 108.089 72.1242 113.733C75.4932 120.689 74.0121 138.025 70.0489 138.025C69.2174 138.025 68.9269 137.395 69.4033 136.624C70.3513 135.09 66.3062 130.403 64.0346 130.403C61.7485 130.403 62.4125 133.468 64.9058 134.425C66.1635 134.908 67.1926 135.915 67.1926 136.664C67.1926 139.155 64.3475 138.07 61.9666 134.671L61.9664 134.671ZM71.4182 121.222C70.4239 110.875 68.7137 109.153 66.5197 116.291C65.6877 118.998 65.9664 119.521 67.8548 118.796C69.6187 118.119 70.2413 118.851 70.2413 121.601C70.2413 126.577 68.8386 127.693 66.0669 124.922C63.3524 122.207 62.1674 122.879 63.508 126.373C64.0479 127.78 66.1539 128.878 68.3114 128.878C72.0054 128.878 72.1252 128.583 71.418 121.222H71.4182ZM144.434 137.009C143.875 136.45 143.418 135.284 143.418 134.417C143.418 133.462 144.128 133.552 145.222 134.646C146.214 135.638 146.671 136.804 146.238 137.238C145.805 137.671 144.993 137.568 144.434 137.009ZM32.1106 129.704C32.1106 127.026 33.0254 126.632 34.3322 128.746C34.8146 129.527 34.5121 130.596 33.6599 131.123C32.8077 131.65 32.1105 131.012 32.1105 129.704H32.1106ZM12.2924 125.96C12.2924 123.116 12.9264 121.434 13.7957 121.972C15.3976 122.962 15.1068 128.064 13.3481 129.822C12.7675 130.403 12.2924 128.665 12.2924 125.96H12.2924ZM36.6853 127.993C36.6853 126.686 37.3713 126.04 38.2098 126.558C39.0483 127.077 39.7343 128.146 39.7343 128.935C39.7343 129.724 39.0483 130.37 38.2098 130.37C37.3713 130.37 36.6853 129.3 36.6853 127.993ZM52.6123 128.975C53.0862 128.208 52.762 127.344 51.8917 127.054C51.0214 126.763 50.3532 123.103 50.4068 118.92C50.4605 114.736 50.4899 109.769 50.4722 107.883C50.4545 105.996 51.1457 104.453 52.008 104.453C52.9725 104.453 53.3681 108.12 53.0359 113.981C52.6702 120.435 53.1991 124.616 54.6754 126.939C56.619 129.999 56.5786 130.37 54.3026 130.37C52.899 130.37 52.1384 129.742 52.6123 128.975H52.6123ZM57.5204 127.829C56.9614 127.27 56.5249 125.726 56.5504 124.399C56.5885 122.416 56.886 122.482 58.2147 124.767C59.8563 127.59 59.3803 129.689 57.5204 127.829H57.5204ZM7.43634 126.529C6.86913 125.962 6.81739 124.423 7.32139 123.11C7.98933 121.369 7.65097 121.057 6.07297 121.958C4.39153 122.918 4.30389 122.766 5.6805 121.275C8.30313 118.434 10.3282 119.95 9.3355 124.01C8.85814 125.963 8.0035 127.097 7.43622 126.529H7.43634ZM20.036 125.161C19.9698 123.554 20.3301 122.653 20.8367 123.16C21.3433 123.666 21.3974 124.981 20.9571 126.082C20.4705 127.298 20.1092 126.937 20.0361 125.161H20.036ZM22.0623 121.604C21.3866 120.136 20.7663 115.975 20.684 112.356C20.5938 108.401 19.651 105.219 18.3192 104.376C16.4813 103.213 16.5583 102.971 18.7722 102.952C21.168 102.931 22.1361 101.239 21.6206 97.9736C21.5213 97.3447 22.1995 96.8302 23.1277 96.8302C24.0559 96.8302 24.396 97.9229 23.8834 99.2586C23.3709 100.594 22.5352 103.346 22.0262 105.374C21.2623 108.418 21.5604 108.885 23.7345 108.05C26.0568 107.159 26.1473 107.452 24.5008 110.529C23.4738 112.448 23.0078 116.325 23.4654 119.145C24.3874 124.827 23.922 125.643 22.0621 121.604L22.0623 121.604ZM55.3982 118.173C55.1744 115.202 56.5957 114.2 58.4312 116.036C59.5261 117.131 58.1327 121.222 56.6648 121.222C56.0945 121.222 55.5245 119.85 55.3982 118.173L55.3982 118.173ZM7.66443 114.362C7.25101 107.972 7.7745 103.909 9.20364 102.414C9.87485 101.713 10.1018 104.457 9.7079 108.513C8.78766 117.988 8.03793 120.134 7.66436 114.362H7.66443ZM16.3415 114.563C15.7103 112.159 15.5541 109.831 15.9944 109.39C17.222 108.163 18.7226 113.073 18.0692 116.179C17.6416 118.211 17.1877 117.787 16.3416 114.563L16.3415 114.563ZM29.8252 113.6C29.307 112.761 29.6096 112.075 30.4975 112.075C31.3855 112.075 32.112 112.761 32.112 113.6C32.112 114.438 31.8095 115.124 31.4397 115.124C31.07 115.124 30.3435 114.438 29.8252 113.6H29.8252ZM1.6211 110.641C1.6211 109.852 2.30714 108.782 3.14563 108.264C3.98412 107.746 4.67016 108.391 4.67016 109.699C4.67016 111.006 3.98412 112.075 3.14563 112.075C2.30714 112.075 1.6211 111.43 1.6211 110.641ZM12.2928 107.412C12.2928 104.847 12.8868 103.116 13.6129 103.564C14.841 104.323 14.171 112.075 12.8773 112.075C12.5559 112.075 12.2928 109.977 12.2928 107.412ZM27.3856 106.994C26.6937 102.381 27.3704 98.3887 29.5502 94.2381C32.4486 88.717 32.6508 87.6832 30.8318 87.6832C30.1279 87.6832 28.6659 89.5699 27.583 91.8757C26.4615 94.2635 25.3192 95.2542 24.9293 94.1771C23.9247 91.4022 29.7973 84.4541 31.6129 86.2698C32.5634 87.2203 33.8193 86.3785 35.1442 83.9027C36.2752 81.7896 37.7705 80.0606 38.4674 80.0606C40.4474 80.0606 39.9557 82.5527 37.588 84.5177C34.6178 86.9827 30.4557 96.1151 29.7456 101.725C29.1973 106.059 27.735 109.323 27.3856 106.994V106.994ZM31.608 103.691C34.286 90.6586 47.9976 72.4476 57.491 69.3156C63.9314 67.19 63.431 65.9463 56.6788 67.2968C53.9915 67.8342 49.6148 70.583 46.9527 73.4054C42.0382 78.6158 39.7344 79.7669 39.7344 77.0124C39.7344 76.1739 40.7635 75.4879 42.0212 75.4879C43.2789 75.4879 44.308 74.8019 44.308 73.9634C44.308 69.8241 37.6288 74.6872 35.9204 80.0704C35.3897 81.7424 33.9486 83.1103 32.7179 83.1103C29.7481 83.1103 31.7673 79.4161 38.4413 72.6392C42.4997 68.5183 42.9009 67.6179 40.4731 68.0812C37.3185 68.6834 27.5239 81.6742 23.5579 90.5164C22.295 93.3321 20.9083 95.2825 20.4764 94.8506C20.0444 94.4186 20.6996 92.1149 21.9323 89.7312C23.1649 87.3474 24.3279 84.711 24.5167 83.8724C24.7054 83.0339 26.4916 80.4087 28.486 78.0386C30.4804 75.6685 32.1122 72.8629 32.1122 71.804C32.1122 70.7452 33.6557 69.1198 35.5423 68.1919C37.429 67.2641 41.3736 65.0214 44.3084 63.2082C49.1327 60.2274 49.281 60.2095 45.8557 63.0217C39.3556 68.3579 43.1125 67.611 53.4487 61.512C58.8953 58.2982 62.3253 55.6582 61.0714 55.6455C59.0523 55.6246 59.053 55.453 61.0774 54.1443C62.9807 52.9143 62.8529 52.6417 60.3151 52.5192C57.8154 52.3987 58.0278 52.0347 61.4945 50.4993C63.8202 49.4692 65.2131 48.1167 64.59 47.4936C63.9669 46.8705 64.6366 46.8133 66.0785 47.3666C67.693 47.9861 68.6999 47.643 68.6999 46.4732C68.6999 45.0732 71.2049 44.787 78.2282 45.3844C85.5619 46.0083 86.9665 45.8278 84.3263 44.6009C80.1203 42.6463 79.9008 41.077 83.8332 41.077C85.4487 41.077 86.3717 41.7221 85.8844 42.5105C85.3972 43.2988 85.636 43.5499 86.4152 43.0683C89.3753 41.2388 98.0999 44.292 99.3174 47.5835C100.467 50.6903 100.275 50.7835 95.8874 49.2539C92.351 48.0211 90.9541 48.0969 90.043 49.571C89.2227 50.8982 87.4744 51.1315 84.4898 50.3121C80.2857 49.158 71.6327 49.4051 63.8809 50.9008C62.6651 51.1353 63.0294 54.2329 64.5606 56.6821C65.1711 57.6586 64.8088 58.8413 63.7555 59.3101C62.7022 59.7789 64.2415 60.0308 67.1762 59.8698C70.6824 59.6775 72.3813 60.214 72.1309 61.4343C71.9102 62.5097 73.3921 63.2914 75.6511 63.2914C77.8638 63.2914 79.1445 62.6316 78.6102 61.7669C78.092 60.9284 78.6301 60.2423 79.8061 60.2423C82.9818 60.2423 99.3028 66.0596 101.693 68.0436C102.902 69.0468 103.765 69.1385 103.765 68.2636C103.765 66.9036 97.0218 63.1266 86.9951 58.8705C83.7489 57.4926 84.0821 57.3961 89.2436 58.2194C92.5764 58.751 96.2272 60.1096 97.3562 61.2386C98.4852 62.3676 100.122 63.2915 100.994 63.2915C101.866 63.2915 105.961 66.1225 110.094 69.5826C114.226 73.0428 117.956 75.5253 118.382 75.0994C119.367 74.1142 105.07 61.79 102.926 61.7769C102.046 61.7714 100.524 60.9658 99.5451 59.9865C96.942 57.3834 86.9787 54.1937 81.368 54.1672C78.6924 54.1544 76.0793 53.4583 75.561 52.6198C73.2753 48.9217 95.5837 54.3155 103.659 59.4139C112.215 64.8152 129.681 81.5056 129.681 84.2815C129.681 85.9486 128.808 85.5675 126.66 82.9633C124.999 80.9484 122.936 78.4659 122.075 77.4465C121.215 76.4271 119.442 76.0033 118.135 76.5048C116.657 77.0721 113.782 75.4999 110.524 72.3423C107.645 69.5514 105.289 67.9752 105.289 68.8395C105.289 69.7039 107.347 72.2449 109.862 74.4863C112.378 76.7276 114.436 79.2883 114.436 80.1767C114.436 81.1166 115.755 81.3734 117.591 80.7908C120.001 80.0259 122.125 81.2391 126.583 85.925C129.793 89.2995 132.827 91.6537 133.324 91.1564C133.821 90.6591 133.483 89.3546 132.573 88.2575C131.662 87.1604 131.235 85.3823 131.624 84.3059C132.048 83.1299 133.116 84.022 134.299 86.5414C135.382 88.8472 136.728 90.7339 137.29 90.7339C137.852 90.7339 140.528 93.8211 143.238 97.5942C145.948 101.367 147.688 104.455 147.105 104.455C145.882 104.455 141.035 99.1456 137.723 94.1772C136.471 92.2979 134.822 91.1452 134.06 91.6162C133.298 92.0871 134.231 94.5524 136.133 97.0949C143.08 106.382 143.747 107.504 142.322 107.504C141.523 107.504 138.769 104.588 136.202 101.024C131.026 93.839 126.092 88.4673 120.458 83.8844L116.723 80.8463L120.413 85.0218C122.443 87.3183 123.641 89.6597 123.076 90.2247C122.511 90.7898 118.541 87.3524 114.254 82.5861C102.361 69.3626 92.9095 63.6939 91.0102 68.644C90.4648 70.0654 90.8558 70.9393 91.973 70.7957C93.0078 70.6626 94.9313 70.6351 96.2479 70.7343C99.4834 70.9785 111.536 81.4367 111.121 83.6393C110.938 84.6065 111.34 87.0271 112.013 89.0185C114.117 95.2419 109.781 96.1243 104.939 90.4578C100.517 85.2836 100.418 82.7789 104.775 86.3242C107.089 88.207 107.263 88.1261 106.319 85.6093C105.516 83.471 105.822 82.9896 107.558 83.6558C111.637 85.221 109.87 82.4815 103.52 77.3942C97.0869 72.2399 94.6168 71.3122 94.6168 74.0504C94.6168 74.9553 93.1375 74.6253 91.2418 73.2975C89.3854 71.9973 84.4299 70.4776 80.2293 69.9204C74.7106 69.1883 73.4264 68.6128 75.6005 67.8458C77.2553 67.2621 80.6473 67.3663 83.1383 68.0776C86.472 69.0295 88.2681 68.7698 89.9442 67.0938C91.3121 65.7259 91.5328 64.8169 90.4969 64.8169C89.5486 64.8169 88.5113 65.6012 88.1917 66.56C87.7558 67.8678 86.7973 67.8678 84.3535 66.56C82.5621 65.6012 78.6503 64.8169 75.6604 64.8169C72.6705 64.8169 70.2243 64.1308 70.2243 63.2923C70.2243 62.4538 69.5597 61.7678 68.7476 61.7678C67.9354 61.7678 67.7087 62.9684 68.2438 64.4357C69.1614 66.9519 69.0483 66.9563 66.2554 64.5128C64.2174 62.7298 62.592 62.3659 61.0423 63.346C59.3597 64.4101 59.2996 64.7761 60.8049 64.7935C61.9129 64.8063 63.7689 65.7663 64.9292 66.9267C66.726 68.7235 66.3684 69.1708 62.5195 69.9403C57.8735 70.8696 49.0316 76.3555 46.9415 79.6056C46.2942 80.6123 44.9221 82.3539 43.8925 83.4759C41.8137 85.7412 38.2091 91.7814 38.2091 92.9998C38.2091 93.4305 38.8951 93.7827 39.7336 93.7827C40.5721 93.7827 41.2581 92.9206 41.2581 91.867C41.2581 88.3753 54.1182 75.6162 60.1303 73.1428C67.8232 69.9776 87.6167 70.7519 82.3426 74.0117C81.3215 74.6427 78.4568 74.577 75.9764 73.8655C64.9519 70.7038 51.0741 78.3318 44.3773 91.2335C42.8334 94.2084 41.3067 95.2778 39.339 94.7632C37.3135 94.2335 36.1018 95.1754 35.0508 98.0964C34.2451 100.336 32.9289 103.54 32.1259 105.217C30.9754 107.62 30.8652 107.297 31.6059 103.693L31.608 103.691ZM58.7201 62.5276C63.4494 58.8961 60.0752 59.8731 53.4553 64.0522C50.1346 66.1483 46.7182 67.8635 45.8629 67.8635C45.0078 67.8635 44.3081 68.8719 44.3081 70.1043C44.3081 72.2877 49.7026 69.4517 58.7201 62.5274L58.7201 62.5276ZM76.7043 47.035C75.6562 46.6121 73.9411 46.6121 72.893 47.035C71.8449 47.4579 72.7024 47.804 74.7987 47.804C76.8949 47.804 77.7524 47.4579 76.7043 47.035ZM35.6272 102.954C36.5766 100.438 37.8891 98.3803 38.5438 98.3803C40.128 98.3803 40.0531 99.0613 37.9649 103.644C35.4849 109.087 33.5299 108.51 35.6271 102.954H35.6272ZM2.59448 100.667C3.07713 99.4094 4.51164 98.3803 5.78233 98.3803C7.66315 98.3803 7.73985 98.8055 6.19482 100.667C5.15099 101.925 3.71645 102.954 3.00697 102.954C2.29748 102.954 2.11184 101.925 2.59448 100.667ZM14.7701 96.9058C15.7066 91.7468 18.1486 86.1894 20.151 84.6596C20.6998 84.2403 21.2649 83.2113 21.4067 82.3728C21.5485 81.5343 23.3513 77.761 25.4125 73.9878C28.1602 68.9582 32.1235 65.195 40.2632 59.886C46.3695 55.9032 52.3504 52.6547 53.5537 52.6669C55.6388 52.6883 51.6233 55.4534 45.07 58.5086C43.393 59.2904 38.8959 62.6906 35.0765 66.0647C28.7169 71.6827 25.9408 76.2878 15.5944 98.3797C13.9368 101.919 13.878 101.814 14.7692 96.9053L14.7701 96.9058ZM17.6939 100.01C17.2114 99.2297 17.514 98.1601 18.3662 97.6334C19.2183 97.1067 19.9155 97.7453 19.9155 99.0525C19.9155 101.73 19.0007 102.125 17.6939 100.01L17.6939 100.01ZM110.753 98.9243C109.476 95.5984 111.171 94.0524 112.972 96.9001C114.774 99.7508 114.813 101.429 113.075 101.429C112.326 101.429 111.281 100.302 110.753 98.9243H110.753ZM9.24393 97.3339C9.24393 96.553 10.2512 94.5823 11.4821 92.9548C13.3626 90.4686 13.7282 90.3922 13.7689 92.4767C13.7956 93.8414 12.7884 95.8119 11.5307 96.8558C10.273 97.8996 9.24393 98.1148 9.24393 97.3339ZM4.67034 95.7046C4.67034 94.8661 5.6994 93.3262 6.95713 92.2823C8.23277 91.2237 9.24393 91.0585 9.24393 91.9089C9.24393 92.7474 8.21487 94.2874 6.95713 95.3313C5.6815 96.39 4.67034 96.555 4.67034 95.7046ZM1.62128 91.4642C1.62128 88.7437 5.7679 80.6543 8.8628 77.3372C9.9109 76.2138 10.7685 74.3488 10.7685 73.1926C10.7685 72.0365 11.9633 70.4219 13.4236 69.6045C14.884 68.7872 15.6428 67.6826 15.1098 67.1495C13.7228 65.7625 6.68474 73.1711 7.38728 75.2786C7.70965 76.2457 6.88719 77.0369 5.5596 77.0369C4.23201 77.0369 3.1457 77.723 3.1457 78.5615C3.1457 79.4 2.37825 80.086 1.44023 80.086C-1.11392 80.086 6.97587 69.7713 17.082 60.1418C26.0155 51.63 27.4272 49.5952 24.3989 49.5952C23.5109 49.5952 23.2739 50.3873 23.8722 51.3553C24.5006 52.3721 24.2948 52.7042 23.3848 52.1418C22.5185 51.6064 17.8404 55.5517 12.9891 60.9093C7.40414 67.0772 3.36052 70.3403 1.96566 69.805C0.133226 69.1019 0.190313 68.7205 2.30447 67.5373C3.70241 66.755 9.16741 61.7507 14.449 56.417C21.3196 49.4785 24.5199 47.1871 25.6969 48.3641C26.8738 49.541 28.0514 49.2996 29.8355 47.5154C32.6391 44.7118 33.6358 44.4059 33.6358 46.3488C33.6358 47.7333 24.9633 56.3947 18.3906 61.5744C16.2944 63.2264 15.063 65.0636 15.6545 65.6573C17.0006 67.0086 31.9491 54.0957 32.0426 51.5008C32.0804 50.4527 33.721 49.5951 35.6883 49.5951C40.1231 49.5951 49.1823 45.2179 48.1625 43.5677C47.4663 42.4412 55.4477 39.706 63.9515 38.157C65.9515 37.7927 68.0097 37.0314 68.5251 36.4655C69.0405 35.8995 67.1984 35.8677 64.4318 36.3948C60.9387 37.0602 59.7207 36.8363 60.4464 35.6623C62.3267 32.62 92.3194 36.8977 107.576 42.3843C110.091 43.2889 115.78 46.3962 120.217 49.2895C127.631 54.1244 131.314 54.9957 129.084 51.3874C126.915 47.8778 101.381 37.1048 88.9623 34.4602C81.5913 32.8904 77.6187 31.5517 80.1342 31.4853C82.6496 31.419 89.167 32.3981 94.6172 33.6613C100.067 34.9244 105.384 36.0536 106.432 36.1703C107.48 36.287 108.338 36.9544 108.338 37.6531C108.338 38.3519 109.195 38.9278 110.244 38.9329C111.292 38.9384 114.153 39.9872 116.602 41.2643C119.051 42.5414 121.627 43.0138 122.327 42.3141C123.027 41.6143 120.851 39.8296 117.493 38.348C114.135 36.8663 111.387 35.1177 111.387 34.4622C111.387 33.8068 114.817 34.9122 119.01 36.9186C123.202 38.925 126.632 41.2664 126.632 42.1218C126.632 42.9772 125.994 43.2823 125.213 42.7999C124.433 42.3175 123.363 42.6201 122.836 43.4723C122.31 44.3244 122.5 45.0216 123.26 45.0216C125.187 45.0216 131.206 50.4111 131.206 52.1369C131.206 52.919 130.396 54.3689 129.406 55.3589C128.022 56.7427 126.524 56.3624 122.926 53.7139C113.066 46.4539 94.0374 39.5397 80.4011 38.2611C76.4966 37.8951 72.6098 37.1679 71.7639 36.645C70.9179 36.1222 70.2257 36.4208 70.2257 37.3088C70.2257 38.1968 69.1967 38.9233 67.9389 38.9233C66.6812 38.9233 65.6522 39.6093 65.6522 40.4478C65.6522 42.2253 65.9208 42.2305 74.2821 40.6111C79.4158 39.6168 80.4703 39.7871 79.8114 41.5038C79.3637 42.6705 77.8812 43.5172 76.5171 43.3856C68.5642 42.6173 62.6029 43.6448 62.6029 45.7839C62.6029 48.7369 60.4553 48.707 57.9758 45.7193C56.574 44.0302 55.5588 43.8334 54.3718 45.0205C53.1846 46.2077 53.3373 47.0551 54.9137 48.0294C56.5917 49.0664 56.0504 49.6387 52.6141 50.4608C42.594 52.8578 18.1241 72.0066 15.1784 79.7571C13.0843 85.2648 13.6693 87.3967 16.1053 83.1354C18.7521 78.5054 19.0747 79.9691 16.6031 85.3937C15.3015 88.2506 14.471 88.7892 13.5541 87.3711C12.5547 85.8254 11.9957 85.8862 10.8524 87.6648C10.0595 88.8983 8.93265 89.4293 8.34826 88.845C7.76394 88.2607 8.15366 86.7371 9.21429 85.4591C10.2749 84.1811 10.7224 83.1354 10.2087 83.1354C9.69502 83.1354 10.4686 81.637 11.9277 79.8058C16.2443 74.3881 32.1129 58.3587 32.1129 59.4143C32.1129 59.9495 32.9705 59.6646 34.0186 58.7813C38.6325 54.8925 47.6827 49.5957 49.7126 49.5957C51.9161 49.5957 52.9773 46.5665 50.7883 46.5248C47.4426 46.4613 29.4543 57.3711 23.1028 63.3162C15.5532 70.3825 4.67071 86.0982 4.67071 89.9351C4.67071 91.1271 3.98467 92.5264 3.14618 93.0445C2.30769 93.5628 1.62165 92.8516 1.62165 91.4641L1.62128 91.4642ZM62.6024 41.9735C64.3844 40.822 63.9637 40.4905 60.6968 40.4724C58.391 40.4596 56.5043 41.1351 56.5043 41.9735C56.5043 43.9011 59.6197 43.9011 62.6024 41.9735ZM141.497 90.6313C140.03 89.0242 139.174 87.7094 139.596 87.7094C140.017 87.7094 137.562 85.1796 134.14 82.0876C130.717 78.9957 125.056 73.8129 121.558 70.5707C118.06 67.3284 110.74 61.9725 105.289 58.6689C94.8497 52.3405 94.4103 50.4432 104.622 55.7867C115.541 61.5 117.478 62.817 116.46 63.8344C115.906 64.3884 116.116 64.8417 116.927 64.8417C117.737 64.8417 119.08 64.1624 119.91 63.3322C120.906 62.336 124.249 63.9414 129.743 68.0539C134.321 71.481 138.297 74.9086 138.578 75.6709C138.859 76.4331 139.717 76.669 140.484 76.195C141.25 75.7211 141.878 76.8655 141.878 78.7381V82.1428L137.775 78.4469C135.519 76.4141 130.95 72.2057 127.622 69.0949C124.294 65.9839 120.992 63.797 120.283 64.2351C119.188 64.9115 128.985 75.5133 130.705 75.5133C131.033 75.5133 133.796 78.2267 136.845 81.5433C139.895 84.8597 142.789 87.3268 143.277 87.0255C143.765 86.7242 144.264 88.1268 144.385 90.1426C144.505 92.1583 144.505 93.7505 144.385 93.6805C144.264 93.6108 142.964 92.2385 141.497 90.6314L141.497 90.6313ZM68.702 67.8767C68.702 67.0382 69.3881 66.3521 70.2265 66.3521C71.065 66.3521 71.7511 67.0382 71.7511 67.8767C71.7511 68.7152 71.065 69.4012 70.2265 69.4012C69.3881 69.4012 68.702 68.7152 68.702 67.8767ZM132.556 66.5637C130.556 65.003 124.162 60.5437 118.346 56.6542C112.53 52.7647 108.757 49.6013 109.961 49.6243C111.165 49.6473 116.595 52.6783 122.027 56.3596C127.458 60.0409 132.536 62.6615 133.31 62.183C134.084 61.7046 133.565 60.47 132.155 59.4393C129.911 57.7985 129.882 57.4544 131.924 56.6708C133.211 56.1772 134.308 56.6088 134.372 57.6339C134.545 60.3798 135.348 63.7223 136.558 66.7332C137.924 70.1301 137.08 70.0944 132.556 66.5635L132.556 66.5637ZM3.1827 62.4668C3.13849 60.4642 13.4384 49.6661 20.6122 44.1937C25.6427 40.3566 27.5403 37.3391 24.8718 37.42C24.243 37.439 19.6636 41.2065 14.6957 45.7922C9.72769 50.3778 5.41233 53.879 5.10608 53.5728C4.03929 52.506 15.8592 40.4345 17.9705 40.4345C19.1402 40.4345 19.7037 39.7978 19.2228 39.0197C18.7419 38.2415 19.7305 37.1662 21.4196 36.6302C23.1087 36.0941 24.4907 35.0156 24.4907 34.2336C24.4907 33.4517 25.4035 32.8119 26.5191 32.8119C27.6348 32.8119 31.9225 31.0361 36.0474 28.8658C40.3662 26.5934 41.8948 25.2809 39.6511 25.7714C31.8289 27.4813 22.0493 32.7889 15.5961 38.826C11.9623 42.2261 8.77702 45.0079 8.51769 45.0079C8.25846 45.0079 7.5937 43.8283 7.04043 42.3866C6.48716 40.9449 6.50396 40.2346 7.07778 40.8084C8.41913 42.1498 13.8182 39.2929 13.8182 37.2418C13.8182 36.3833 13.0261 36.1705 12.0581 36.7688C10.9676 37.4427 10.7118 37.187 11.3858 36.0965C11.9841 35.1285 13.8052 34.3364 15.4327 34.3364C17.0602 34.3364 18.3917 33.711 18.3917 32.9466C18.3917 31.786 31.6696 26.1395 41.6413 23.06C43.1087 22.6067 44.2987 21.0139 44.2859 19.5202C44.267 17.3138 44.0045 17.2123 42.8868 18.9784C42.1301 20.174 39.9109 21.3936 37.9554 21.6885C35.9999 21.9834 30.0587 24.2528 24.7528 26.7316C19.4469 29.2103 15.3306 30.5633 15.6056 29.7384C15.8806 28.9134 16.6452 28.4099 17.3046 28.6195C17.9641 28.8292 19.1016 28.0331 19.8325 26.8506C21.3053 24.4674 34.36 19.0945 38.6827 19.0925C40.1995 19.0919 41.029 18.4253 40.5261 17.6114C40.0231 16.7975 41.4901 15.6601 43.7861 15.0839C46.4403 14.4178 48.1749 14.679 48.5491 15.8014C48.8727 16.7723 49.8398 17.5668 50.6981 17.5668C51.5565 17.5668 51.8898 16.6053 51.4388 15.4303C50.9342 14.1151 51.8972 12.9508 53.9437 12.402C59.1953 10.9936 60.5345 11.4009 57.7094 13.5472C56.275 14.637 54.4054 17.3592 53.5547 19.5967C52.2024 23.1536 52.3865 23.665 55.0193 23.665C56.6755 23.665 58.0305 22.9658 58.0305 22.1114C58.0305 21.2569 59.5741 20.942 61.4607 21.4115C63.3474 21.8811 67.635 21.5677 70.989 20.715L77.0872 19.1647L69.0834 19.6666C61.7568 20.1259 58.3637 18.7194 62.9853 17.1387C64.0334 16.7802 63.1758 16.7784 61.0796 17.135C58.3065 17.6064 57.7195 17.323 58.9248 16.0947C61.5524 13.4169 69.2406 12.4404 68.295 14.9047C67.8299 16.1168 68.6459 17.029 70.3075 17.154C72.1514 17.293 72.8169 16.621 72.2637 15.179C71.8025 13.9771 72.2061 12.9936 73.1606 12.9936C74.1151 12.9936 75.2894 14.0186 75.7702 15.2715C76.251 16.5245 77.3318 17.1248 78.1719 16.6055C79.1118 16.0246 78.9038 15.1491 77.631 14.3297C74.1846 12.1104 90.4496 15.5663 103.766 19.8825C104.185 20.0183 107.272 21.3662 110.626 22.8775C120.196 27.1901 114.313 27.3077 103.749 23.015C91.582 18.0713 85.6403 17.0031 80.899 18.9072L77.0877 20.4375L80.899 20.3581C87.3094 20.2244 100.332 23.4067 106.729 26.6698C110.064 28.3712 113.89 29.7633 115.23 29.7633C116.571 29.7633 117.245 30.4468 116.729 31.2822C116.14 32.2348 114.052 31.9023 111.128 30.3902C107.776 28.6569 106.001 28.4442 104.812 29.6335C103.622 30.8228 103.86 31.2878 105.659 31.2878C107.035 31.2878 108.63 32.0473 109.204 32.9756C109.882 34.0724 109.246 34.3604 107.388 33.7978C94.2633 29.8232 79.2132 27.9586 65.7558 28.6398C52.8127 29.2949 51.6698 29.1413 54.3219 27.1027C57.12 24.9518 57.0595 24.8739 53.1221 25.5557C50.8417 25.9507 49.3385 25.6869 49.7819 24.9695C50.2253 24.2522 49.1755 23.6653 47.4489 23.6653C45.7225 23.6653 44.3098 24.3918 44.3098 25.2797C44.3098 26.1677 45.0129 26.4598 45.8721 25.9287C46.7314 25.3976 47.2459 25.8717 47.0155 26.9821C46.7851 28.0926 47.5051 28.8126 48.6156 28.5822C49.726 28.3518 50.2 28.8663 49.669 29.7256C49.138 30.5848 47.7149 31.2879 46.5067 31.2879C45.2985 31.2879 44.31 32.0144 44.31 32.9024C44.31 33.7904 43.6173 34.0887 42.7707 33.5655C41.9241 33.0423 39.4305 34.0309 37.2292 35.7623C35.0281 37.4938 32.3746 38.9103 31.3325 38.9103C30.2905 38.9103 28.5839 39.9394 27.5402 41.1971C24.7757 44.5281 27.4382 43.9211 34.4006 39.6328C41.3172 35.3726 44.0562 34.7801 41.261 38.1481C40.2171 39.4059 39.8741 40.4349 40.4987 40.4349C41.1233 40.4349 40.7803 41.4639 39.7364 42.7217C38.6926 43.9794 37.1054 45.0085 36.2093 45.0085C35.3132 45.0085 35.9117 44.0013 37.5393 42.7703C40.462 40.5597 40.4622 40.5313 37.5485 40.4835C35.9255 40.4568 32.9738 41.9606 30.9889 43.8253C27.9708 46.6605 27.1569 46.8542 26.0162 45.0086C24.5067 42.566 22.5278 44.0582 9.83995 57.2048C6.19847 60.978 3.2031 63.3458 3.18374 62.4667L3.1827 62.4668ZM44.8972 28.6891C42.216 27.7954 25.3841 36.2465 26.8752 37.7378C27.338 38.2006 31.9347 36.4715 37.0901 33.8952C42.2456 31.319 45.7587 28.9764 44.897 28.6891H44.8972ZM103.765 28.2703C103.765 27.5479 101.536 26.4346 98.8107 25.7964C96.0856 25.1581 92.8269 24.3865 91.5692 24.0817C86.8329 22.9341 62.3588 23.6507 59.9336 25.008C58.2193 25.9674 61.3111 26.395 69.532 26.3354C84.2364 26.2288 98.821 27.931 100.035 29.8952C101.03 31.5052 103.765 30.3137 103.765 28.2703ZM115.237 59.7837C106.716 54.6452 101.677 51.1072 102.878 51.1072C105.225 51.1072 120.535 59.3147 120.535 60.5729C120.535 62.2084 118.839 61.9556 115.237 59.7837H115.237ZM51.9311 57.9677C52.9749 56.71 54.515 55.6809 55.3534 55.6809C56.2038 55.6809 56.0388 56.6921 54.9801 57.9677C53.9363 59.2254 52.3962 60.2545 51.5578 60.2545C50.7073 60.2545 50.8724 59.2433 51.9311 57.9677ZM72.5126 57.2054L66.4145 56.1135L72.8937 55.8973C76.4572 55.7784 79.373 56.3669 79.373 57.2054C79.373 58.0439 79.2015 58.6325 78.9919 58.5135C78.7822 58.3945 75.8666 57.8059 72.5126 57.2054ZM65.6522 53.5718C65.6522 53.2503 67.3673 52.6594 69.4635 52.2586C71.5597 51.8579 73.2749 52.1209 73.2749 52.8432C73.2749 53.5654 71.5598 54.1563 69.4635 54.1563C67.3674 54.1563 65.6522 53.8933 65.6522 53.5718ZM103.104 48.1298C101.483 47.5412 100.83 46.6436 101.653 46.135C103.225 45.1631 108.01 47.4175 106.77 48.5462C106.375 48.9058 104.726 48.7184 103.104 48.1298H103.104ZM42.9669 41.6201C44.6065 38.5564 50.3375 35.728 52.4158 36.9567C53.1011 37.3618 54.0386 36.2522 54.4993 34.4909C54.9599 32.7295 55.4283 31.2521 55.5401 31.2075C55.652 31.1629 59.6124 30.7629 64.341 30.3185C69.8575 29.8 73.316 30.1208 73.9913 31.2136C74.7098 32.3763 73.6745 32.6639 70.7295 32.1198C64.7569 31.0164 56.5056 32.7489 56.5056 35.1063C56.5056 37.4789 52.6302 39.4075 46.2629 40.2032C45.2411 40.331 44.7561 41.3502 45.1851 42.4681C45.6199 43.6012 44.9605 44.5009 43.6951 44.5009C41.9416 44.5009 41.7759 43.8452 42.9669 41.6198L42.9669 41.6201ZM117.899 33.4165C118.405 32.9099 119.72 32.8558 120.821 33.296C122.037 33.7827 121.675 34.1439 119.899 34.217C118.292 34.2831 117.392 33.923 117.898 33.4164L117.899 33.4165ZM22.9661 19.0924C24.2239 18.2796 26.282 17.6145 27.5397 17.6145C29.5725 17.6145 29.5725 17.7787 27.5397 19.0924C26.282 19.9052 24.2239 20.5702 22.9661 20.5702C20.9334 20.5702 20.9334 20.406 22.9661 19.0924ZM102.241 16.8056C100.144 15.6073 96.5427 14.6025 94.2368 14.5728C91.931 14.543 90.0443 13.7528 90.0443 12.8166C90.0443 11.8186 88.4524 11.4186 86.1966 11.8498C84.0804 12.2544 82.0542 12.1084 81.6939 11.5255C81.3336 10.9425 76.3763 10.6383 70.6776 10.8493C64.6812 11.0714 61.5882 10.7411 63.3353 10.065C64.9958 9.42246 73.4703 8.80575 82.1673 8.69463C95.3436 8.52625 97.6934 8.83836 96.2593 10.5663C94.8776 12.2312 95.6732 12.8758 100.295 13.836C103.461 14.4938 106.501 14.9382 107.05 14.8236C107.6 14.7089 108.436 15.6225 108.908 16.8538C109.986 19.6616 107.201 19.6416 102.24 16.8056H102.241ZM30.5888 16.9308C30.5888 16.4011 32.3452 15.3 34.4918 14.4839C36.8668 13.581 37.9682 12.3097 37.3053 11.237C36.706 10.2674 36.8542 9.86876 37.6347 10.3511C39.7969 11.6875 56.8191 7.32992 58.207 5.08476C59.1526 3.55481 59.837 3.52003 61.2473 4.93028C63.2772 6.95994 62.6786 7.26034 45.8337 12.6654C40.3835 14.4142 34.7237 16.3062 33.2563 16.8696C31.7889 17.433 30.5884 17.4606 30.5884 16.9309L30.5888 16.9308ZM63.0115 5.2105C62.7991 2.39099 63.3621 2.11546 67.6417 2.9431C80.0604 5.34495 87.8981 5.01439 86.1358 2.16286C85.6719 1.41223 85.6517 0.798096 86.091 0.798096C86.5303 0.798096 87.5983 2.12225 88.4646 3.74062C89.9506 6.51739 89.4326 6.68523 79.2754 6.71737C73.3551 6.73618 67.3283 7.12686 65.8824 7.58579C63.9996 8.1834 63.1849 7.50952 63.0116 5.2105H63.0115ZM45.0725 4.65931C51.5832 2.62672 56.232 2.59584 54.982 4.59354C54.5627 5.26351 50.7895 5.98074 46.5971 6.18736L38.9744 6.56311L45.0725 4.6592V4.65931Z" fill="#A4C20A" />
  </g>
</svg>
